<svg xmlns="http://www.w3.org/2000/svg" viewBox="0 0 1000 700" width="1000" height="700"><rect width="1000" height="700" fill="#13203a"/><g transform="translate(500.0 250) scale(1.6)"><defs><clipPath id="spclip"><path d="M0 -100 C22 -62 92 -34 90 14 C88 58 44 70 14 44 C18 70 28 88 44 100 L-44 100 C-28 88 -18 70 -14 44 C-44 70 -88 58 -90 14 C-92 -34 -22 -62 0 -100 Z"/></clipPath></defs><path d="M0 -100 C22 -62 92 -34 90 14 C88 58 44 70 14 44 C18 70 28 88 44 100 L-44 100 C-28 88 -18 70 -14 44 C-44 70 -88 58 -90 14 C-92 -34 -22 -62 0 -100 Z" fill="#c9a44c"/><g clip-path="url(#spclip)"><path d="M-30 -30 L30 -30 L0 14 Z" fill="#f3e2ab"/><path d="M0 -100 L-30 -30 L30 -30 Z" fill="#e2c477"/><path d="M0 -100 L-100 -40 L-30 -30 Z" fill="#c9a44c"/><path d="M0 -100 L100 -40 L30 -30 Z" fill="#e2c477"/><path d="M-100 -40 L-30 -30 L-62 14 Z" fill="#e2c477"/><path d="M-100 -40 L-100 14 L-62 14 Z" fill="#a07a2c"/><path d="M-30 -30 L-62 14 L0 14 Z" fill="#c9a44c"/><path d="M100 -40 L30 -30 L62 14 Z" fill="#c9a44c"/><path d="M100 -40 L100 14 L62 14 Z" fill="#e2c477"/><path d="M30 -30 L62 14 L0 14 Z" fill="#e2c477"/><path d="M-100 14 L-62 14 L0 52 Z" fill="#a07a2c"/><path d="M-62 14 L-26 14 L0 52 Z" fill="#c9a44c"/><path d="M-26 14 L0 14 L0 52 Z" fill="#e2c477"/><path d="M0 14 L26 14 L0 52 Z" fill="#f3e2ab"/><path d="M26 14 L62 14 L0 52 Z" fill="#c9a44c"/><path d="M62 14 L100 14 L0 52 Z" fill="#a07a2c"/><path d="M-100 14 L0 52 L-100 100 Z" fill="#7d5c1c"/><path d="M100 14 L0 52 L100 100 Z" fill="#a07a2c"/><path d="M0 52 L-60 110 L0 110 Z" fill="#c9a44c"/><path d="M0 52 L0 110 L60 110 Z" fill="#a07a2c"/></g><g clip-path="url(#spclip)" stroke="#7d5c1c" stroke-width="1.6" fill="none" stroke-linejoin="round" opacity="0.55"><path d="M0 -100 L-30 -30"/><path d="M0 -100 L30 -30"/><path d="M-30 -30 L30 -30"/><path d="M-30 -30 L0 14"/><path d="M30 -30 L0 14"/><path d="M-100 -40 L-30 -30"/><path d="M100 -40 L30 -30"/><path d="M-30 -30 L-62 14"/><path d="M30 -30 L62 14"/><path d="M-100 14 L100 14"/><path d="M-62 14 L0 52"/><path d="M-26 14 L0 52"/><path d="M0 14 L0 52"/><path d="M26 14 L0 52"/><path d="M62 14 L0 52"/></g><path d="M0 -100 C22 -62 92 -34 90 14 C88 58 44 70 14 44 C18 70 28 88 44 100 L-44 100 C-28 88 -18 70 -14 44 C-44 70 -88 58 -90 14 C-92 -34 -22 -62 0 -100 Z" fill="none" stroke="#7d5c1c" stroke-width="2.4"/></g><path transform="translate(618.0 118)" fill="#c9a44c" d="M0 -16 Q1.92 -1.92 16 0 Q1.92 1.92 0 16 Q-1.92 1.92 -16 0 Q-1.92 -1.92 0 -16 Z"/><path transform="translate(99.99999999999994 545)" d="M24.35568003003542 0.30633735401110473Q21.989231449238943 0.30633735401110473 18.460621140867318 0.07658433850277618Q14.932010832495692 -0.15316867700555237 11.990523770882092 -0.15316867700555237Q9.301164171692514 -0.15316867700555237 6.845000371810126 -0.07658433850277618Q4.388836571927738 0.0 2.4239055320218266 0.0Q2.270736855016274 0.0 2.270736855016274 -0.4595060310166571Q2.270736855016274 -0.9190120620333142 2.4239055320218266 -0.9190120620333142Q4.935587427470908 -0.9190120620333142 6.224476821188201 -1.301933754547195Q7.513366214905493 -1.684855447061076 7.942996012811257 -2.833620524602719Q8.372625810717022 -3.9823856021443618 8.372625810717022 -6.203331418724871V-41.661880145510246Q8.372625810717022 -43.882825962090756 7.947816911061597 -44.99329887038101Q7.523008011406173 -46.10377177867126 6.281258920105701 -46.524985640436526Q5.0395098288052305 -46.9461995022018 2.5560116462042886 -46.9461995022018Q2.3473211935190506 -46.9461995022018 2.3473211935190506 -47.40570553321846Q2.3473211935190506 -47.86521156423512 2.5560116462042886 -47.86521156423512Q4.506417195743053 -47.86521156423512 6.903790683717784 -47.75033505648095Q9.301164171692514 -47.63545854872679 12.00171099433994 -47.63545854872679Q14.702257816987364 -47.63545854872679 17.866048865485702 -47.82691939498373Q21.029839913984038 -48.01838024124067 23.283499290996556 -48.01838024124067Q31.31145818375455 -48.01838024124067 37.27766037044502 -44.95500670112962Q43.24386255713549 -41.891633161018575 46.56256252348207 -36.60731380432702Q49.88126248982864 -31.32299444763546 49.88126248982864 -24.736741336396708Q49.88126248982864 -18.992915948688495 47.866084927213386 -14.359563469270535Q45.85090736459813 -9.726210989852575 42.305687578515744 -6.471376603484588Q38.76046779243335 -3.2165422171166 34.13302301902054 -1.4551024315527474Q29.505578245607737 0.30633735401110473 24.35568003003542 0.30633735401110473ZM23.589836645007658 -1.2444768033218456Q28.884333679387016 -1.2444768033218456 32.94975104507117 -3.7545303674851622Q37.015168410755315 -6.264583931648478 39.34909295424086 -11.153051587998165Q41.683017497726404 -16.041519244347853 41.683017497726404 -23.05703007941458Q41.683017497726404 -29.624742350540878 39.51279291265796 -34.940655551467074Q37.34256832758951 -40.256568752393264 33.40453941910847 -43.389828305990335Q29.466510510627423 -46.523087859587406 24.028280113201227 -46.523087859587406Q19.50649512455227 -46.523087859587406 17.579176932669107 -45.65253640280221Q15.651858740785947 -44.78198494601702 15.651858740785947 -41.50871146850469V-7.045759142255409Q15.651858740785947 -4.085763240714149 17.158604546679882 -2.665120022017997Q18.665350352573817 -1.2444768033218456 23.589836645007658 -1.2444768033218456Z M85.5733597938206 -6.203331418724871Q85.5733597938206 -3.9823856021443618 85.97734404915757 -2.833620524602719Q86.38132830449453 -1.684855447061076 87.62487491474008 -1.301933754547195Q88.86842152498564 -0.9190120620333142 91.38997395833333 -0.9190120620333142Q91.59866441101858 -0.9190120620333142 91.59866441101858 -0.4595060310166571Q91.59866441101858 0.0 91.38997395833333 0.0Q89.42666993016894 0.0 87.05434422947032 -0.07658433850277618Q84.68201852877169 -0.15316867700555237 81.81886682103197 -0.15316867700555237Q79.10204379553385 -0.15316867700555237 76.67336866667947 -0.07658433850277618Q74.24469353782507 0.0 72.2688222465537 0.0Q72.09459100672505 0.0 72.09459100672505 -0.4595060310166571Q72.09459100672505 -0.9190120620333142 72.29103095682558 -0.9190120620333142Q74.77927032476546 -0.9190120620333142 76.05613000041882 -1.301933754547195Q77.33298967607217 -1.684855447061076 77.77526610066053 -2.833620524602719Q78.21754252524889 -3.9823856021443618 78.21754252524889 -6.203331418724871V-41.661880145510246Q78.21754252524889 -43.882825962090756 77.78791272734313 -44.99329887038101Q77.35828292943737 -46.10377177867126 76.06939353572008 -46.524985640436526Q74.78050414200278 -46.9461995022018 72.2688222465537 -46.9461995022018Q72.09459100672505 -46.9461995022018 72.09459100672505 -47.40570553321846Q72.09459100672505 -47.86521156423512 72.2688222465537 -47.86521156423512Q74.24469353782507 -47.86521156423512 76.67336866667947 -47.75033505648095Q79.10204379553385 -47.63545854872679 81.81886682103197 -47.63545854872679Q84.68201852877169 -47.63545854872679 87.09524639672375 -47.75033505648095Q89.5084742646758 -47.86521156423512 91.38997395833333 -47.86521156423512Q91.59866441101858 -47.86521156423512 91.59866441101858 -47.40570553321846Q91.59866441101858 -46.9461995022018 91.38997395833333 -46.9461995022018Q88.90647577573239 -46.9461995022018 87.66472668443191 -46.48669347118515Q86.42297759313145 -46.02718744016849 85.99816869347603 -44.87842236262685Q85.5733597938206 -43.7296572850852 85.5733597938206 -41.50871146850469Z M123.91159931133926 -18.759442160874976 124.93398901194237 -20.69317801072181H146.3794641788723L146.91555454839173 -18.759442160874976ZM164.63139486705438 -0.9190120620333142Q164.99325399674515 -0.9190120620333142 164.99325399674515 -0.4595060310166571Q164.99325399674515 0.0 164.63139486705438 0.0Q162.37598983761728 0.0 159.9501865247463 -0.15316867700555237Q157.52438321187535 -0.30633735401110473 155.29004074526134 -0.30633735401110473Q152.74936092463622 -0.30633735401110473 150.88740886912456 -0.15316867700555237Q149.02545681361286 0.0 146.73559257131916 0.0Q146.42925521730805 0.0 146.42925521730805 -0.4595060310166571Q146.42925521730805 -0.9190120620333142 146.73559257131916 -0.9190120620333142Q150.19148889227932 -0.9190120620333142 150.8577875951321 -2.151059803094486Q151.52408629798487 -3.3831075441556577 149.73585321235402 -6.988302191030059L133.70479355135936 -39.488939770605974L136.8255492533027 -44.6218760470515L121.71164126818877 -10.474787373755504Q119.68598925426 -5.858664500765843 121.57186924121672 -3.3888382813995785Q123.45774922817345 -0.9190120620333142 127.999222938206 -0.9190120620333142Q128.3821446307199 -0.9190120620333142 128.3821446307199 -0.4595060310166571Q128.3821446307199 0.0 127.999222938206 0.0Q125.70169278312272 0.0 123.78708432055332 -0.15316867700555237Q121.87247585798391 -0.30633735401110473 118.96227099487842 -0.30633735401110473Q116.05973204456251 -0.30633735401110473 114.30212521539345 -0.15316867700555237Q112.54451838622438 0.0 110.02490112842236 0.0Q109.71856377441125 0.0 109.71856377441125 -0.4595060310166571Q109.71856377441125 -0.9190120620333142 110.02490112842236 -0.9190120620333142Q112.09267826799731 -0.9190120620333142 113.596604150213 -1.768138110580605Q115.10053003242868 -2.617264159127896 116.55179950758664 -4.858304950758663Q118.0030689827446 -7.099345742389431 119.81236463119853 -11.219568195960177L136.26266558371626 -48.297924295184764Q136.36031248504213 -48.527677310693086 136.89926822318353 -48.555438198532926Q137.4382239613249 -48.58319908637277 137.51480829982768 -48.297924295184764L156.2817667947061 -10.492054374880338Q158.09872835594965 -6.829402776780586 159.44948556115978 -4.723333467954241Q160.8002427663699 -2.617264159127896 162.03995642022068 -1.768138110580605Q163.27967007407142 -0.9190120620333142 164.63139486705438 -0.9190120620333142Z M188.9967507748181 -9.2417720449215 189.76259415984586 -46.10377177867126 191.83610203666473 -45.95060310166571 191.03579943878037 -9.2417720449215Q190.95921510027762 -5.224927229920544 192.57704990247464 -3.071969645976929Q194.19488470467164 -0.9190120620333142 197.52440564869326 -0.9190120620333142Q197.73309610137852 -0.9190120620333142 197.73309610137852 -0.4595060310166571Q197.73309610137852 0.0 197.52440564869326 0.0Q195.8395502016322 0.0 194.0675791346568 -0.07658433850277618Q192.2956080676814 -0.15316867700555237 190.09572481392397 -0.15316867700555237Q187.81352648441987 -0.15316867700555237 185.90658393464003 -0.07658433850277618Q183.9996413848602 0.0 182.35691106344532 0.0Q182.1482206107601 0.0 182.1482206107601 -0.4595060310166571Q182.1482206107601 -0.9190120620333142 182.35691106344532 -0.9190120620333142Q185.51793150488223 -0.9190120620333142 187.21904897059878 -3.071969645976929Q188.92016643631533 -5.224927229920544 188.9967507748181 -9.2417720449215ZM243.22032282093625 -0.9190120620333142Q243.39455406076488 -0.9190120620333142 243.39455406076488 -0.4595060310166571Q243.39455406076488 0.0 243.22032282093625 0.0Q241.27125514551022 0.0 238.81769094479944 -0.07658433850277618Q236.36412674408865 -0.15316867700555237 233.67027824645797 -0.15316867700555237Q230.9630330987938 -0.15316867700555237 228.6387096436435 -0.07658433850277618Q226.3143861884932 0.0 224.42850620153646 0.0Q224.21981574885123 0.0 224.21981574885123 -0.4595060310166571Q224.21981574885123 -0.9190120620333142 224.42850620153646 -0.9190120620333142Q228.09115779963622 -0.9190120620333142 229.1461089322468 -1.9146084625694044Q230.20106006485736 -2.910204863105495 229.99236961217213 -6.203331418724871L228.3362426407237 -41.23884329228891L231.7786675222573 -46.45990017111813L212.10222326428774 -0.5360903695194332Q212.02563892578496 -0.22975301550832855 211.51730944410536 -0.22975301550832855Q211.0089799624258 -0.22975301550832855 210.85581128542026 -0.5360903695194332L190.11492699059448 -41.50871146850469Q187.33109750442753 -46.9461995022018 182.89300143296475 -46.9461995022018Q182.68431098027952 -46.9461995022018 182.68431098027952 -47.40570553321846Q182.68431098027952 -47.86521156423512 182.89300143296475 -47.86521156423512Q184.37489716458452 -47.86521156423512 186.00996157320984 -47.78862722573234Q187.64502598183515 -47.712042887229565 188.76506258376412 -47.712042887229565Q190.5035046309592 -47.712042887229565 191.83893001059016 -47.78862722573234Q193.17435539022114 -47.86521156423512 193.91147029963622 -47.86521156423512Q194.98365103867508 -47.86521156423512 195.56856485885743 -47.12043074203044Q196.1534786790398 -46.37564991982577 197.43434987076392 -43.882825962090756L214.69455450950124 -10.137711579192993L211.3708390921166 -4.2561241294514645L229.5443250556433 -45.95060310166571Q229.98276852383685 -46.95959615223531 230.52269184975108 -47.41240385823521Q231.06261517566531 -47.86521156423512 231.84185521072658 -47.86521156423512Q232.5023857816389 -47.86521156423512 233.32375094234635 -47.78862722573234Q234.1451161030538 -47.712042887229565 235.25175605494925 -47.712042887229565Q237.57607951009953 -47.712042887229565 239.16232046806192 -47.78862722573234Q240.7485614260243 -47.86521156423512 242.34916662179302 -47.86521156423512Q242.55785707447825 -47.86521156423512 242.55785707447825 -47.40570553321846Q242.55785707447825 -46.9461995022018 242.34916662179302 -46.9461995022018Q238.76309936219604 -46.9461995022018 237.08494224015172 -45.62800372899914Q235.4067851181074 -44.30980795579648 235.53889123228987 -41.20430929003925L237.27160254224106 -6.203331418724871Q237.4037086564235 -3.9823856021443618 237.84598508101186 -2.833620524602719Q238.28826150560022 -1.684855447061076 239.52127683443422 -1.301933754547195Q240.75429216326822 -0.9190120620333142 243.22032282093625 -0.9190120620333142Z M288.41661880145506 0.9190120620333142Q282.9025464292552 0.9190120620333142 278.42236262684276 -1.0338885697874787Q273.94217882443036 -2.9867892016082713 270.7639287765652 -6.4330844342332Q267.5856787287 -9.879379666858128 265.8625311123875 -14.359563469270535Q264.139383496075 -18.839747271682942 264.139383496075 -23.89431361286617Q264.139383496075 -30.09764503159104 266.55179015891247 -34.769289680260385Q268.9641968217499 -39.440934328929735 272.94658242389426 -42.54260003829217Q276.92896802603866 -45.64426574765461 281.6771970132108 -47.17595251771013Q286.4254260003829 -48.70763928776565 291.0970706490522 -48.70763928776565Q296.7643116982577 -48.70763928776565 301.2444955006701 -46.67815431744208Q305.7246793030825 -44.64866934711851 308.86463718169637 -41.20237411449359Q312.0045950603102 -37.75607888186866 313.65115833811984 -33.390771587210416Q315.2977216159295 -29.025464292552172 315.2977216159295 -24.430403982385602Q315.2977216159295 -19.06950028719127 313.1533601378518 -14.4744399770247Q311.0089986597741 -9.879379666858128 307.29465824238946 -6.4330844342332Q303.5803178250048 -2.9867892016082713 298.7172123300785 -1.0338885697874787Q293.8541068351522 0.9190120620333142 288.41661880145506 0.9190120620333142ZM291.007089660516 -0.8902835864206395Q295.59068849619473 -0.8902835864206395 299.23421270701704 -3.351513699921022Q302.87773691783934 -5.812743813421405 304.99913805224486 -10.592566644828164Q307.1205391866504 -15.372389476234924 307.1205391866504 -22.230520728628182Q307.1205391866504 -29.33946755935286 304.7971459245764 -34.86407121296429Q302.47375266250236 -40.38867486657573 298.19649118083476 -43.56692491444093Q293.91922969916715 -46.745174962306145 287.99157198329505 -46.745174962306145Q280.49583310896514 -46.745174962306145 276.4061995171597 -41.39766791714532Q272.3165659253542 -36.050160871984495 272.3165659253542 -26.66474644899962Q272.3165659253542 -21.137277426766225 273.6922186497822 -16.42734060884549Q275.0678713742102 -11.717403790924756 277.5721942011296 -8.21175382622535Q280.076517028049 -4.706103861525943 283.49698654837977 -2.798193723973291Q286.9174560687105 -0.8902835864206395 291.007089660516 -0.8902835864206395Z M343.9038698275656 -9.2417720449215V-46.10377177867126L346.03289948006415 -45.95060310166571V-9.2417720449215Q346.03289948006415 -5.224927229920544 347.61244211300976 -3.071969645976929Q349.1919847459554 -0.9190120620333142 352.24196163603295 -0.9190120620333142Q352.4161928758616 -0.9190120620333142 352.4161928758616 -0.4595060310166571Q352.4161928758616 0.0 352.24196163603295 0.0Q350.62029387744116 0.0 348.88374961109514 -0.07658433850277618Q347.1472053447492 -0.15316867700555237 345.06603155514074 -0.15316867700555237Q342.894876776996 -0.15316867700555237 340.84912978801697 -0.07658433850277618Q338.80338279903793 0.0 337.04960892626366 0.0Q336.8409184735784 0.0 336.8409184735784 -0.4595060310166571Q336.8409184735784 -0.9190120620333142 337.04960892626366 -0.9190120620333142Q340.4193198203858 -0.9190120620333142 342.1615948239757 -3.071969645976929Q343.9038698275656 -5.224927229920544 343.9038698275656 -9.2417720449215ZM382.8144445242198 1.064514826249282Q382.8144445242198 1.2732052789345205 382.45928371954574 1.3114974481859085Q382.1041229148717 1.3497896174372965 381.9509542378662 1.2732052789345205L345.0584404317442 -41.58529580700747Q342.34352937129046 -44.72525368562129 340.3973270644864 -45.835726593911545Q338.45112475768235 -46.9461995022018 336.55757885793605 -46.9461995022018Q336.3833476181074 -46.9461995022018 336.3833476181074 -47.40570553321846Q336.3833476181074 -47.86521156423512 336.55757885793605 -47.86521156423512Q338.02607793952234 -47.86521156423512 339.5711613596113 -47.78862722573234Q341.11624477970037 -47.712042887229565 342.410512621458 -47.712042887229565Q344.70417242544994 -47.712042887229565 346.5775859554494 -47.78862722573234Q348.45099948544896 -47.86521156423512 349.4657232732625 -47.86521156423512Q350.4613196737986 -47.86521156423512 350.927524029832 -46.984491671453185Q351.3937283858654 -46.10377177867126 353.21068994710896 -43.882825962090756L382.2017698161976 -9.697332935453762ZM382.8144445242198 -38.54685518081084V1.064514826249282L380.74093664740093 -1.2540778916570936V-38.54685518081084Q380.74093664740093 -42.563699995811795 379.1824565772784 -44.7549497490068Q377.6239765071559 -46.9461995022018 374.5739996170783 -46.9461995022018Q374.4208309400728 -46.9461995022018 374.4208309400728 -47.40570553321846Q374.4208309400728 -47.86521156423512 374.5739996170783 -47.86521156423512Q376.21672993849324 -47.86521156423512 377.9532742048392 -47.75033505648095Q379.68981847118516 -47.63545854872679 381.7709922607936 -47.63545854872679Q383.7545191490762 -47.63545854872679 385.6825242616791 -47.75033505648095Q387.610529374282 -47.86521156423512 389.2321971328738 -47.86521156423512Q389.40642837270246 -47.86521156423512 389.40642837270246 -47.40570553321846Q389.40642837270246 -46.9461995022018 389.2321971328738 -46.9461995022018Q386.10563590429354 -46.9461995022018 384.46004021425665 -44.7549497490068Q382.8144445242198 -42.563699995811795 382.8144445242198 -38.54685518081084Z M430.09950541774367 0.30633735401110473Q427.7330568369472 0.30633735401110473 424.20444652857555 0.07658433850277618Q420.6758362202039 -0.15316867700555237 417.7343491585903 -0.15316867700555237Q415.04498955940073 -0.15316867700555237 412.5888257595184 -0.07658433850277618Q410.132661959636 0.0 408.16773091973005 0.0Q408.0145622427245 0.0 408.0145622427245 -0.4595060310166571Q408.0145622427245 -0.9190120620333142 408.16773091973005 -0.9190120620333142Q410.67941281517915 -0.9190120620333142 411.96830220889643 -1.301933754547195Q413.2571916026137 -1.684855447061076 413.6868214005195 -2.833620524602719Q414.11645119842524 -3.9823856021443618 414.11645119842524 -6.203331418724871V-41.661880145510246Q414.11645119842524 -43.882825962090756 413.6916422987698 -44.99329887038101Q413.2668333991144 -46.10377177867126 412.0250843078139 -46.524985640436526Q410.7833352165135 -46.9461995022018 408.2998370339125 -46.9461995022018Q408.0911465812273 -46.9461995022018 408.0911465812273 -47.40570553321846Q408.0911465812273 -47.86521156423512 408.2998370339125 -47.86521156423512Q410.25024258345127 -47.86521156423512 412.647616071426 -47.75033505648095Q415.04498955940073 -47.63545854872679 417.74553638204816 -47.63545854872679Q420.4460832046956 -47.63545854872679 423.60987425319394 -47.82691939498373Q426.7736653016923 -48.01838024124067 429.02732467870476 -48.01838024124067Q437.0552835714628 -48.01838024124067 443.0214857581533 -44.95500670112962Q448.98768794484374 -41.891633161018575 452.3063879111903 -36.60731380432702Q455.6250878775369 -31.32299444763546 455.6250878775369 -24.736741336396708Q455.6250878775369 -18.992915948688495 453.60991031492165 -14.359563469270535Q451.59473275230636 -9.726210989852575 448.049512966224 -6.471376603484588Q444.5042931801416 -3.2165422171166 439.87684840672875 -1.4551024315527474Q435.249403633316 0.30633735401110473 430.09950541774367 0.30633735401110473ZM429.3336620327159 -1.2444768033218456Q434.6281590670952 -1.2444768033218456 438.6935764327794 -3.7545303674851622Q442.75899379846356 -6.264583931648478 445.0929183419491 -11.153051587998165Q447.4268428854346 -16.041519244347853 447.4268428854346 -23.05703007941458Q447.4268428854346 -29.624742350540878 445.2566183003662 -34.940655551467074Q443.08639371529773 -40.256568752393264 439.1483648068167 -43.389828305990335Q435.21033589833564 -46.523087859587406 429.77210550090945 -46.523087859587406Q425.2503205122605 -46.523087859587406 423.3230023203773 -45.65253640280221Q421.39568412849417 -44.78198494601702 421.39568412849417 -41.50871146850469V-7.045759142255409Q421.39568412849417 -4.085763240714149 422.9024299343881 -2.665120022017997Q424.409175740282 -1.2444768033218456 429.3336620327159 -1.2444768033218456Z  M520.4747555882635 -39.708942118992915Q520.4747555882635 -36.714487004595064 521.9892127518907 -34.51077079444285Q523.5036699155179 -32.30705458429064 525.9371391411785 -30.56667736154988Q528.3706083668391 -28.826300138809113 531.0721227772593 -27.106985478891442Q533.9612650775417 -25.332149043294084 536.5928934744759 -23.365851761439785Q539.2245218714102 -21.399554479585486 540.9476694877226 -18.79951992688589Q542.6708171040351 -16.199485374186292 542.6708171040351 -12.523437126053034Q542.6708171040351 -8.611905125167528 540.6145388336445 -5.580125429291116Q538.558260563254 -2.5483457334147044 534.91763911575 -0.8146668356906951Q531.2770176682462 0.9190120620333142 526.4024133041356 0.9190120620333142Q524.273383651637 0.9190120620333142 522.0160808413508 0.5226937194859276Q519.7587780310646 0.12637537693854106 517.8135433120333 -0.5312898253518092Q515.8683085930021 -1.1889550276421597 514.6544206514455 -2.017986101139192Q514.3270207346113 -2.2477391166475207 514.1288615633376 -2.5368468642303275Q513.930702392064 -2.8259546118131342 513.9096398292409 -3.4730885326919396L513.4271360598555 -15.039184032763737Q513.3505517213528 -15.422105725277618 513.7717655831179 -15.460397894529006Q514.1929794448832 -15.498690063780394 514.269563783386 -15.19235270976929Q515.1866406698737 -12.839300779006319 516.4387833859851 -10.291922633364447Q517.6909261020966 -7.744544487722574 519.3719485927628 -5.607848922434425Q521.052971083429 -3.4711533571462763 523.2499889685646 -2.117530783314187Q525.4470068537 -0.7639082094820985 528.3093558539153 -0.7639082094820985Q530.239296142064 -0.7639082094820985 532.0160677532069 -1.4503018873851237Q533.79283936435 -2.1366955652881487 534.932040748253 -3.8502794879619Q536.0712421321559 -5.56386341063565 536.0712421321559 -8.56598443782309Q536.0712421321559 -12.207573473099751 534.452439742186 -14.752086250119664Q532.8336373522162 -17.296599027139575 530.3063541816246 -19.207374533314187Q527.779071011033 -21.1181500394888 525.0009722621099 -22.83746469940647Q522.3205204145128 -24.556779359324143 519.8487590196008 -26.401501808407524Q517.3769976246889 -28.246224257490905 515.8347795732218 -30.658630920328356Q514.2925615217548 -33.071037583165804 514.2925615217548 -36.50393616575723Q514.2925615217548 -40.70840887062033 516.5891240890653 -43.406090324645795Q518.8856866563757 -46.10377177867126 522.4525891339987 -47.40570553321845Q526.0194916116217 -48.70763928776565 529.7433957226451 -48.70763928776565Q532.2898062805141 -48.70763928776565 534.8888732454409 -48.2309036503207Q537.4879402103676 -47.754168012875745 539.3068369471569 -46.9806587150584Q540.0305552065385 -46.69538392387038 540.2430786156185 -46.32299351276805Q540.4556020246985 -45.95060310166571 540.4556020246985 -45.512159633472145L540.6451650901063 -35.11782694931074Q540.6451650901063 -34.86701137097932 540.2794730040207 -34.783728707459794Q539.9137809179351 -34.70044604394027 539.7816748037527 -34.95126162227168Q539.4064190240283 -36.0808993125359 538.6166477075556 -38.10271837006988Q537.8268763910827 -40.12453742760387 536.4799521422674 -42.21144195445625Q535.1330278934521 -44.298346481308634 533.041322822432 -45.75534669371051Q530.949617751412 -47.21234690611239 527.9704944625934 -47.21234690611239Q525.6767598692084 -47.21234690611239 524.001468115786 -46.2780030184999Q522.3261763623636 -45.343659130887424 521.4004659753136 -43.69229530891011Q520.4747555882635 -42.0409314869328 520.4747555882635 -39.708942118992915Z M577.9628005037814 -6.509668772735975Q577.9628005037814 -4.21213861765269 578.5027238296957 -3.0250813708596596Q579.0426471556099 -1.8380241240666284 580.7772936411068 -1.3785180930499714Q582.5119401266036 -0.9190120620333142 585.9257113219176 -0.9190120620333142Q586.1554643374259 -0.9190120620333142 586.1554643374259 -0.4595060310166571Q586.1554643374259 0.0 585.9257113219176 0.0Q583.4750124898287 0.0 580.6030997959746 -0.07658433850277618Q577.7311871021204 -0.15316867700555237 574.3614762079983 -0.15316867700555237Q571.6886902731908 -0.15316867700555237 569.2523556789083 -0.07658433850277618Q566.8160210846257 0.0 564.8669534091997 0.0Q564.6582629565145 0.0 564.6582629565145 -0.4595060310166571Q564.6582629565145 -0.9190120620333142 564.8669534091997 -0.9190120620333142Q567.3885058425475 -0.9190120620333142 568.6215211713815 -1.301933754547195Q569.8545365002154 -1.684855447061076 570.269052036964 -2.833620524602719Q570.6835675737125 -3.9823856021443618 570.6835675737125 -6.203331418724871V-41.661880145510246Q570.6835675737125 -43.882825962090756 570.269052036964 -44.99329887038101Q569.8545365002154 -46.10377177867126 568.6215211713815 -46.524985640436526Q567.3885058425475 -46.9461995022018 564.8669534091997 -46.9461995022018Q564.6582629565145 -46.9461995022018 564.6582629565145 -47.40570553321846Q564.6582629565145 -47.86521156423512 564.8669534091997 -47.86521156423512Q566.8160210846257 -47.86521156423512 569.2140635096569 -47.75033505648095Q571.612105934688 -47.63545854872679 574.2848918694956 -47.63545854872679Q576.1650411192084 -47.63545854872679 579.1097051951704 -47.86521156423511Q582.0543692711325 -48.09496457974344 584.7846121571655 -48.09496457974344Q589.4409249802557 -48.09496457974344 593.0815464277595 -46.82079171303609Q596.7221678752633 -45.54661884632874 598.8904572847861 -42.7895826602288Q601.0587466943089 -40.03254647412886 601.1697902456682 -35.53513306528815Q601.2808337970276 -31.587206676000385 599.8324296904916 -28.67700181289489Q598.3840255839557 -25.766796949789395 595.8950345826154 -23.862719768631536Q593.4060435812752 -21.958642587473676 590.3914934918271 -21.01186963760052Q587.376943402379 -20.06509668772736 584.4112167635938 -20.06509668772736Q583.5821856900967 -20.06509668772736 582.6248814588121 -20.14168102623014Q581.6675772275273 -20.21826536473291 580.7696277283171 -20.44801838024124Q580.5188121499857 -20.524602718744017 580.6059277699001 -21.022400919012064Q580.6930433898143 -21.520199119280107 580.9783181810024 -21.44361478077733Q581.6120554518476 -21.290446103771778 582.3673675554638 -21.213861765269Q583.1226796590801 -21.137277426766225 583.6243108157429 -21.137277426766225Q586.1611950746698 -21.137277426766225 588.3151576410828 -22.515795519816198Q590.4691202074957 -23.89431361286617 591.8074483504452 -26.738465418880434Q593.1457764933947 -29.582617224894697 593.1457764933947 -33.83688096819357Q593.1457764933947 -37.93797603448689 591.860104757503 -40.76489823407285Q590.5744330216112 -43.59182043365882 588.206049265269 -45.09574631587449Q585.8376655089269 -46.599672198090175 582.5234763904845 -46.599672198090175Q580.7658321666189 -46.599672198090175 579.7721335469319 -46.248344349810935Q578.7784349272449 -45.89701650153169 578.3706177155132 -44.803773199669735Q577.9628005037814 -43.710529897807774 577.9628005037814 -41.50871146850469Z M633.1208660162981 -18.759442160874976 634.1432557169012 -20.69317801072181H655.5887308838312L656.1248212533505 -18.759442160874976ZM673.8406615720132 -0.9190120620333142Q674.2025207017041 -0.9190120620333142 674.2025207017041 -0.4595060310166571Q674.2025207017041 0.0 673.8406615720132 0.0Q671.5852565425762 0.0 669.1594532297052 -0.15316867700555237Q666.7336499168342 -0.30633735401110473 664.4993074502203 -0.30633735401110473Q661.9586276295951 -0.30633735401110473 660.0966755740834 -0.15316867700555237Q658.2347235185717 0.0 655.9448592762781 0.0Q655.6385219222669 0.0 655.6385219222669 -0.4595060310166571Q655.6385219222669 -0.9190120620333142 655.9448592762781 -0.9190120620333142Q659.4007555972382 -0.9190120620333142 660.0670543000911 -2.151059803094486Q660.7333530029438 -3.3831075441556577 658.9451199173129 -6.988302191030059L642.9140602563183 -39.488939770605974L646.0348159582616 -44.6218760470515L630.9209079731477 -10.474787373755504Q628.8952559592188 -5.858664500765843 630.7811359461756 -3.3888382813995785Q632.6670159331323 -0.9190120620333142 637.2084896431649 -0.9190120620333142Q637.5914113356788 -0.9190120620333142 637.5914113356788 -0.4595060310166571Q637.5914113356788 0.0 637.2084896431649 0.0Q634.9109594880816 0.0 632.9963510255122 -0.15316867700555237Q631.0817425629427 -0.30633735401110473 628.1715376998372 -0.30633735401110473Q625.2689987495214 -0.30633735401110473 623.5113919203524 -0.15316867700555237Q621.7537850911833 0.0 619.2341678333812 0.0Q618.9278304793702 0.0 618.9278304793702 -0.4595060310166571Q618.9278304793702 -0.9190120620333142 619.2341678333812 -0.9190120620333142Q621.3019449729562 -0.9190120620333142 622.8058708551719 -1.768138110580605Q624.3097967373875 -2.617264159127896 625.7610662125455 -4.858304950758663Q627.2123356877034 -7.099345742389431 629.0216313361574 -11.219568195960177L645.4719322886751 -48.297924295184764Q645.569579190001 -48.527677310693086 646.1085349281425 -48.555438198532926Q646.6474906662838 -48.58319908637277 646.7240750047865 -48.297924295184764L665.491033499665 -10.492054374880338Q667.3079950609085 -6.829402776780586 668.6587522661187 -4.723333467954241Q670.0095094713288 -2.617264159127896 671.2492231251795 -1.768138110580605Q672.4889367790303 -0.9190120620333142 673.8406615720132 -0.9190120620333142Z M713.5381422165183 0.30633735401110473Q711.1716936357218 0.30633735401110473 707.6430833273503 0.07658433850277618Q704.1144730189786 -0.15316867700555237 701.172985957365 -0.15316867700555237Q698.4836263581755 -0.15316867700555237 696.0274625582931 -0.07658433850277618Q693.5712987584106 0.0 691.6063677185048 0.0Q691.4531990414991 0.0 691.4531990414991 -0.4595060310166571Q691.4531990414991 -0.9190120620333142 691.6063677185048 -0.9190120620333142Q694.1180496139538 -0.9190120620333142 695.4069390076711 -1.301933754547195Q696.6958284013884 -1.684855447061076 697.1254581992941 -2.833620524602719Q697.5550879972 -3.9823856021443618 697.5550879972 -6.203331418724871V-41.661880145510246Q697.5550879972 -43.882825962090756 697.1302790975445 -44.99329887038101Q696.7054701978891 -46.10377177867126 695.4637211065885 -46.524985640436526Q694.2219720152881 -46.9461995022018 691.7384738326872 -46.9461995022018Q691.529783380002 -46.9461995022018 691.529783380002 -47.40570553321846Q691.529783380002 -47.86521156423512 691.7384738326872 -47.86521156423512Q693.688879382226 -47.86521156423512 696.0862528702007 -47.75033505648095Q698.4836263581755 -47.63545854872679 701.1841731808229 -47.63545854872679Q703.8847200034703 -47.63545854872679 707.0485110519686 -47.82691939498373Q710.2123021004669 -48.01838024124067 712.4659614774795 -48.01838024124067Q720.4939203702374 -48.01838024124067 726.4601225569279 -44.95500670112962Q732.4263247436184 -41.891633161018575 735.7450247099649 -36.60731380432702Q739.0637246763115 -31.32299444763546 739.0637246763115 -24.736741336396708Q739.0637246763115 -18.992915948688495 737.0485471136963 -14.359563469270535Q735.033369551081 -9.726210989852575 731.4881497649986 -6.471376603484588Q727.9429299789163 -3.2165422171166 723.3154852055034 -1.4551024315527474Q718.6880404320906 0.30633735401110473 713.5381422165183 0.30633735401110473ZM712.7722988314905 -1.2444768033218456Q718.06679586587 -1.2444768033218456 722.132213231554 -3.7545303674851622Q726.1976305972382 -6.264583931648478 728.5315551407238 -11.153051587998165Q730.8654796842093 -16.041519244347853 730.8654796842093 -23.05703007941458Q730.8654796842093 -29.624742350540878 728.6952550991409 -34.940655551467074Q726.5250305140725 -40.256568752393264 722.5870016055915 -43.389828305990335Q718.6489726971104 -46.523087859587406 713.2107422996842 -46.523087859587406Q708.6889573110352 -46.523087859587406 706.761639119152 -45.65253640280221Q704.8343209272689 -44.78198494601702 704.8343209272689 -41.50871146850469V-7.045759142255409Q704.8343209272689 -4.085763240714149 706.3410667331627 -2.665120022017997Q707.8478125390567 -1.2444768033218456 712.7722988314905 -1.2444768033218456Z M794.5509757024221 0.0H761.3115124060646Q761.1028219533794 0.0 761.1028219533794 -0.4595060310166571Q761.1028219533794 -0.9190120620333142 761.3115124060646 -0.9190120620333142Q763.8330648394123 -0.9190120620333142 765.0660801682463 -1.301933754547195Q766.2990954970803 -1.684855447061076 766.7136110338288 -2.833620524602719Q767.1281265705774 -3.9823856021443618 767.1281265705774 -6.203331418724871V-41.661880145510246Q767.1281265705774 -43.882825962090756 766.7136110338288 -44.99329887038101Q766.2990954970803 -46.10377177867126 765.0660801682463 -46.524985640436526Q763.8330648394123 -46.9461995022018 761.3115124060646 -46.9461995022018Q761.1028219533794 -46.9461995022018 761.1028219533794 -47.40570553321846Q761.1028219533794 -47.86521156423512 761.3115124060646 -47.86521156423512H793.1935201721951Q793.9383009943998 -47.86521156423512 793.9383009943998 -47.17595251771013L794.0914696714054 -37.242986250717976Q794.0914696714054 -37.06875501088933 793.6980166974799 -37.013233235209654Q793.3045637235546 -36.95771145952997 793.1935201721951 -37.18746447503829Q792.3051717613203 -41.55850250694046 789.6266550892688 -43.706696941412986Q786.9481384172173 -45.85489137588551 782.5790355608607 -45.85489137588551H779.4600654556768Q777.5703151176289 -45.85489137588551 776.4588746215658 -45.44420879553178Q775.3474341255027 -45.03352621517806 774.8773968130745 -44.061857746087014Q774.4073595006463 -43.09018927699598 774.4073595006463 -41.47998299289202V-6.509668772735975Q774.4073595006463 -4.8650032757754165 774.8218750373949 -3.848344312416236Q775.2363905741433 -2.8316853490570555 776.1812657431674 -2.3932418808634885Q777.1261409121913 -1.9547984126699216 778.7938041475206 -1.9547984126699216H782.5637785246746Q787.7369795406137 -1.9547984126699216 790.9573173194285 -4.46868493322803Q794.1776550982435 -6.9825714537861385 795.5465721029582 -11.90309650524124Q795.6020938786378 -12.13284952074957 796.0338390218146 -12.039035575818495Q796.4655841649915 -11.94522163088742 796.4655841649915 -11.77099039105878Q796.1592468109803 -9.61323226294754 795.9400250768836 -6.651338580557151Q795.7208033427868 -3.6894448981667622 795.7208033427868 -1.1487650775416427Q795.7208033427868 0.0 794.5509757024221 0.0ZM790.2622527462665 -17.33105823999617Q790.2622527462665 -20.555266369902355 788.1408890065576 -22.2391542291906Q786.0195252668486 -23.923042088478844 781.6772157105592 -23.923042088478844H770.9381413190456V-25.877840501148764H781.7959251747081Q786.0405878296717 -25.877840501148764 788.1131281187178 -27.342506626340224Q790.1856684077638 -28.807172751531688 790.1856684077638 -31.550812287598124Q790.1856684077638 -31.759502740283363 790.6174135509407 -31.759502740283363Q791.0491586941174 -31.759502740283363 791.0491586941174 -31.550812287598124Q791.0491586941174 -29.10777936829887 791.0108665248661 -27.743625513055235Q790.9725743556147 -26.379471657811603 790.9725743556147 -24.88991001340226Q790.9725743556147 -23.038489239302127 791.0769195819573 -21.253121522293224Q791.1812648082999 -19.46775380528432 791.1812648082999 -17.33105823999617Q791.1812648082999 -17.177889562990618 790.7217587772832 -17.177889562990618Q790.2622527462665 -17.177889562990618 790.2622527462665 -17.33105823999617Z" fill="#fbf7ee"/><rect x="440.0" y="595" width="120" height="2.6" fill="#c9a44c"/><path transform="translate(500.0 596)" fill="#c9a44c" d="M0 -9 Q1.08 -1.08 9 0 Q1.08 1.08 0 9 Q-1.08 1.08 -9 0 Q-1.08 -1.08 0 -9 Z"/></svg>